#!OML:ASF C:\Vicon Data\Big\jianyuan-13\jianyuan\Session 1\Capture.male.ASF
:FULLY-SPECIFIED
:DEGREES
223
root -5.997081 17.927644 -8.429813 -0.977283 9.379703 0.172276
lowerback -6.302097 -0.878597 -3.567442 
upperback 2.611849 -0.849276 -0.773811 
thorax 6.309094 -0.561622 1.093851 
lowerneck -5.851671 -2.182812 2.848964 
upperneck 10.236525 -3.074490 -3.257615 
head 4.333204 -1.646973 -1.786624 
rclavicle 0.000000 0.000000 
rhumerus -38.816471 -17.631621 -77.895883 
rradius 35.476992 
rwrist 26.930034 
rhand -19.298662 -19.582651 
rfingers 0.000000 
rthumb 7.016888 -49.446372 
lclavicle 0.000000 0.000000 
lhumerus -28.823300 28.802839 79.759664 
lradius 28.836153 
lwrist -52.111190 
lhand -19.567628 -0.146364 
lfingers 0.000000 
lthumb 6.757185 29.725848 
rfemur -72.781715 -11.335424 19.647952 
rtibia 78.124185 
rfoot -8.958462 -0.459155 
rtoes -33.643993 
lfemur 2.873049 -3.288451 -24.980178 
ltibia 6.069082 
lfoot -11.756208 1.844658 
ltoes -27.064102 
224
root -5.990629 17.920100 -8.355820 -0.967225 9.299282 0.404256
lowerback -6.386585 -0.917640 -3.788786 
upperback 2.646387 -0.878028 -0.793358 
thorax 6.399720 -0.587043 1.192222 
lowerneck -5.909288 -2.146238 2.874506 
upperneck 10.304948 -3.029143 -3.273803 
head 4.370846 -1.625511 -1.797654 
rclavicle 0.000000 0.000000 
rhumerus -38.721662 -17.547673 -77.910052 
rradius 35.543762 
rwrist 26.847334 
rhand -19.128643 -19.484075 
rfingers 0.000000 
rthumb 7.180937 -49.342251 
lclavicle 0.000000 0.000000 
lhumerus -29.452647 29.137167 79.327102 
lradius 28.420966 
lwrist -52.266780 
lhand -19.835399 -0.072388 
lfingers 0.000000 
lthumb 6.498738 29.807871 
rfemur -72.048411 -10.931739 19.194119 
rtibia 77.058796 
rfoot -9.037997 -0.426503 
rtoes -34.100650 
lfemur 3.210116 -3.203431 -25.255862 
ltibia 6.076552 
lfoot -12.044225 1.760404 
ltoes -27.025658 
225
root -5.989961 17.913747 -8.285921 -0.850930 9.334912 0.434546
lowerback -6.536666 -0.979024 -3.858351 
upperback 2.609388 -0.947065 -0.764972 
thorax 6.452358 -0.623921 1.250786 
lowerneck -5.842463 -2.133757 2.988367 
upperneck 10.313791 -3.018293 -3.339402 
head 4.359006 -1.619935 -1.838720 
rclavicle 0.000000 0.000000 
rhumerus -38.733974 -17.631419 -77.874036 
rradius 35.650606 
rwrist 26.779648 
rhand -19.238536 -19.480879 
rfingers 0.000000 
rthumb 7.074875 -49.342613 
lclavicle 0.000000 0.000000 
lhumerus -30.113974 29.255723 78.914555 
lradius 28.108611 
lwrist -52.681343 
lhand -19.601342 0.117404 
lfingers 0.000000 
lthumb 6.724652 29.990631 
rfemur -71.392977 -10.562369 18.974540 
rtibia 75.899301 
rfoot -8.988346 -0.611043 
rtoes -34.088030 
lfemur 3.322267 -3.249489 -25.271452 
ltibia 6.118559 
lfoot -12.276648 1.683351 
ltoes -27.041508 
226
root -5.986414 17.904789 -8.216813 -0.770457 9.389993 0.485720
lowerback -6.629996 -1.071815 -3.947423 
upperback 2.585905 -1.060023 -0.715329 
thorax 6.490223 -0.683703 1.337546 
lowerneck -5.834293 -2.108839 3.012474 
upperneck 10.353958 -2.984534 -3.391391 
head 4.372429 -1.606230 -1.860039 
rclavicle 0.000000 0.000000 
rhumerus -38.720176 -17.471422 -77.907038 
rradius 35.782747 
rwrist 26.561616 
rhand -19.161597 -19.513397 
rfingers 0.000000 
rthumb 7.149131 -49.372672 
lclavicle 0.000000 0.000000 
lhumerus -30.869943 30.006469 78.235300 
lradius 27.672937 
lwrist -53.848628 
lhand -19.639366 0.044410 
lfingers 0.000000 
lthumb 6.688002 29.918785 
rfemur -70.677360 -10.213708 18.661665 
rtibia 74.704527 
rfoot -9.081464 -0.882126 
rtoes -33.315974 
lfemur 3.369778 -3.311533 -25.318528 
ltibia 6.368241 
lfoot -12.622484 1.550525 
ltoes -26.778610 
227
root -5.980264 17.895190 -8.141579 -0.782311 9.367955 0.654405
lowerback -6.676604 -1.109357 -4.085772 
upperback 2.599933 -1.095016 -0.733445 
thorax 6.536844 -0.707747 1.390655 
lowerneck -5.749189 -2.100250 3.018669 
upperneck 10.321016 -2.972202 -3.401485 
head 4.343623 -1.600694 -1.861046 
rclavicle 0.000000 0.000000 
rhumerus -38.754207 -17.440417 -77.929625 
rradius 35.930023 
rwrist 26.480549 
rhand -19.350648 -19.547383 
rfingers 0.000000 
rthumb 6.966673 -49.412747 
lclavicle 0.000000 0.000000 
lhumerus -31.769517 31.323078 77.198391 
lradius 27.232974 
lwrist -56.019831 
lhand -19.419806 -0.344949 
lfingers 0.000000 
lthumb 6.899885 29.522571 
rfemur -69.803223 -9.875007 18.265801 
rtibia 73.492678 
rfoot -9.213641 -1.061734 
rtoes -33.693666 
lfemur 3.743612 -3.284380 -25.504957 
ltibia 6.282226 
lfoot -12.836684 1.492264 
ltoes -26.797800 
228
root -5.973411 17.886354 -8.066940 -0.647518 9.289847 0.477979
lowerback -6.967695 -1.105959 -3.854409 
upperback 2.569052 -1.097848 -0.662398 
thorax 6.667465 -0.700298 1.330599 
lowerneck -5.686609 -2.120476 3.138034 
upperneck 10.318016 -3.001747 -3.502017 
head 4.326430 -1.616320 -1.916935 
rclavicle 0.000000 0.000000 
rhumerus -38.806925 -17.440038 -77.902133 
rradius 36.099004 
rwrist 26.266183 
rhand -19.253419 -19.501228 
rfingers 0.000000 
rthumb 7.060493 -49.363465 
lclavicle 0.000000 0.000000 
lhumerus -32.475713 32.059611 76.476387 
lradius 26.720530 
lwrist -57.103062 
lhand -19.379815 -0.547694 
lfingers 0.000000 
lthumb 6.938479 29.318560 
rfemur -69.039312 -9.321808 18.244325 
rtibia 72.124591 
rfoot -9.361076 -1.554004 
rtoes -33.855644 
lfemur 3.716902 -3.226184 -25.400918 
ltibia 6.529821 
lfoot -13.122160 2.012284 
ltoes -31.448390 
229
root -5.969431 17.894352 -7.999106 -0.489006 9.264207 0.360187
lowerback -7.240146 -1.134479 -3.730624 
upperback 2.548422 -1.136149 -0.578861 
thorax 6.803186 -0.715540 1.339468 
lowerneck -5.658589 -2.114359 3.089291 
upperneck 10.295526 -2.993175 -3.452817 
head 4.314011 -1.611412 -1.889562 
rclavicle 0.000000 0.000000 
rhumerus -38.834206 -17.378442 -77.888516 
rradius 36.266357 
rwrist 26.136489 
rhand -19.283055 -19.516495 
rfingers 0.000000 
rthumb 7.031903 -49.379707 
lclavicle 0.000000 0.000000 
lhumerus -33.041414 32.237587 76.005022 
lradius 26.333806 
lwrist -57.677164 
lhand -19.253192 -0.524426 
lfingers 0.000000 
lthumb 7.060759 29.337710 
rfemur -68.159278 -8.844451 18.134862 
rtibia 70.592910 
rfoot -9.501691 -1.951278 
rtoes -33.217547 
lfemur 3.343392 -3.219072 -25.168931 
ltibia 7.345080 
lfoot -13.738283 1.283140 
ltoes -27.482218 
230
root -5.966698 17.884294 -7.926152 -0.366525 9.224884 0.528470
lowerback -7.405307 -1.171372 -3.922852 
upperback 2.519638 -1.158959 -0.577249 
thorax 6.873869 -0.735556 1.443341 
lowerneck -5.603391 -2.112775 3.131609 
upperneck 10.313422 -2.991734 -3.504663 
head 4.308444 -1.612749 -1.914021 
rclavicle 0.000000 0.000000 
rhumerus -38.911137 -17.239160 -77.911729 
rradius 36.436974 
rwrist 26.043502 
rhand -19.232227 -19.599453 
rfingers 0.000000 
rthumb 7.080967 -49.461040 
lclavicle 0.000000 0.000000 
lhumerus -33.774579 32.845640 75.280285 
lradius 26.027669 
lwrist -58.878406 
lhand -18.958813 -0.396655 
lfingers 0.000000 
lthumb 7.344900 29.455824 
rfemur -67.277225 -8.437875 17.768548 
rtibia 69.100946 
rfoot -9.699517 -2.334455 
rtoes -33.528518 
lfemur 3.061461 -3.189823 -25.340522 
ltibia 8.231582 
lfoot -14.393179 1.008608 
ltoes -27.040716 
231
root -5.965688 17.874279 -7.852162 -0.395559 9.212458 0.538370
lowerback -7.459783 -1.215194 -3.987203 
upperback 2.552232 -1.210596 -0.518052 
thorax 6.946029 -0.766288 1.533113 
lowerneck -5.621325 -2.089949 3.227298 
upperneck 10.349053 -2.961547 -3.612724 
head 4.324111 -1.600452 -1.968306 
rclavicle 0.000000 0.000000 
rhumerus -38.933914 -17.115116 -77.915697 
rradius 36.510202 
rwrist 26.105462 
rhand -19.359125 -19.554959 
rfingers 0.000000 
rthumb 6.958478 -49.420586 
lclavicle 0.000000 0.000000 
lhumerus -34.543863 33.382565 74.652898 
lradius 25.931001 
lwrist -59.863450 
lhand -18.990341 -0.338568 
lfingers 0.000000 
lthumb 7.314479 29.514966 
rfemur -66.189294 -8.021657 17.581274 
rtibia 67.569828 
rfoot -9.907848 -2.802109 
rtoes -33.672385 
lfemur 3.296688 -3.175116 -25.341731 
ltibia 8.412730 
lfoot -14.720306 0.934355 
ltoes -27.200857 
232
root -5.961815 17.860605 -7.778492 -0.324265 9.209298 0.558982
lowerback -7.628394 -1.267206 -4.050507 
upperback 2.567758 -1.267994 -0.439427 
thorax 7.066913 -0.800337 1.640007 
lowerneck -5.590181 -2.074062 3.176709 
upperneck 10.326450 -2.933798 -3.627711 
head 4.311159 -1.589672 -1.961532 
rclavicle 0.000000 0.000000 
rhumerus -38.960638 -17.024067 -77.852542 
rradius 36.635887 
rwrist 26.093159 
rhand -19.368431 -19.527484 
rfingers 0.000000 
rthumb 6.949488 -49.393423 
lclavicle 0.000000 0.000000 
lhumerus -35.264577 34.499964 73.779556 
lradius 25.478041 
lwrist -61.030445 
lhand -18.825254 -0.480420 
lfingers 0.000000 
lthumb 7.473813 29.367581 
rfemur -65.193599 -7.607416 17.347934 
rtibia 65.962474 
rfoot -10.114162 -3.209524 
rtoes -33.197167 
lfemur 3.542143 -3.178946 -25.371529 
ltibia 8.343200 
lfoot -14.913281 1.023906 
ltoes -28.226836 
233
root -5.959597 17.846701 -7.700850 -0.388257 9.188393 0.694855
lowerback -7.666723 -1.259973 -4.183594 
upperback 2.618698 -1.242064 -0.454019 
thorax 7.145199 -0.795954 1.701409 
lowerneck -5.551240 -2.105701 3.247364 
upperneck 10.339301 -2.977191 -3.700072 
head 4.304717 -1.612686 -2.000677 
rclavicle 0.000000 0.000000 
rhumerus -39.035448 -16.994886 -77.867688 
rradius 36.793006 
rwrist 25.634400 
rhand -19.390971 -19.547508 
rfingers 0.000000 
rthumb 6.927737 -49.414101 
lclavicle 0.000000 0.000000 
lhumerus -35.920513 35.052415 73.078822 
lradius 25.161675 
lwrist -61.988578 
lhand -18.825490 -0.427593 
lfingers 0.000000 
lthumb 7.473577 29.420367 
rfemur -63.949548 -7.196789 17.009014 
rtibia 64.266816 
rfoot -10.267239 -3.625892 
rtoes -33.885085 
lfemur 4.117027 -3.149220 -25.523442 
ltibia 7.997451 
lfoot -15.035276 1.101274 
ltoes -28.689364 
234
root -5.952233 17.834915 -7.616396 -0.456070 9.096974 0.937046
lowerback -7.796814 -1.190693 -4.282783 
upperback 2.723430 -1.126383 -0.575207 
thorax 7.324733 -0.747397 1.641758 
lowerneck -5.567718 -2.169746 3.297734 
upperneck 10.349560 -3.076028 -3.617461 
head 4.307936 -1.654891 -1.987021 
rclavicle 0.000000 0.000000 
rhumerus -39.122796 -17.152027 -77.918745 
rradius 36.917511 
rwrist 25.452137 
rhand -19.459746 -19.584172 
rfingers 0.000000 
rthumb 6.861339 -49.452950 
lclavicle 0.000000 0.000000 
lhumerus -36.589218 35.858111 72.141433 
lradius 24.796796 
lwrist -63.341833 
lhand -18.631559 -0.677581 
lfingers 0.000000 
lthumb 7.660780 29.163671 
rfemur -62.615604 -6.824157 16.586845 
rtibia 62.426265 
rfoot -10.353243 -3.988608 
rtoes -33.643488 
lfemur 4.560135 -3.046760 -25.818527 
ltibia 8.045422 
lfoot -15.398278 1.039526 
ltoes -28.965495 
235
root -5.951736 17.823253 -7.542158 -0.377566 9.204817 0.702421
lowerback -7.976757 -1.241663 -4.090694 
upperback 2.721075 -1.208616 -0.470082 
thorax 7.428700 -0.781103 1.629914 
lowerneck -5.576983 -2.163468 3.447302 
upperneck 10.387092 -3.076128 -3.692801 
head 4.321032 -1.653553 -2.041285 
rclavicle 0.000000 0.000000 
rhumerus -39.227278 -17.260071 -77.787004 
rradius 36.980987 
rwrist 25.847545 
rhand -19.187712 -19.403036 
rfingers 0.000000 
rthumb 7.123981 -49.263115 
lclavicle 0.000000 0.000000 
lhumerus -37.472265 36.954888 71.069107 
lradius 24.500526 
lwrist -64.776108 
lhand -18.696768 -0.757413 
lfingers 0.000000 
lthumb 7.597828 29.086140 
rfemur -61.362867 -6.434842 16.654190 
rtibia 60.324474 
rfoot -10.427190 -4.506879 
rtoes -33.167022 
lfemur 4.470698 -3.168376 -25.524317 
ltibia 8.508150 
lfoot -15.835101 0.965791 
ltoes -29.196859 
